<?xml version="1.0" standalone="no"?>
<!DOCTYPE svg PUBLIC "-//W3C//DTD SVG 20010904//EN"
 "http://www.w3.org/TR/2001/REC-SVG-20010904/DTD/svg10.dtd">
<svg version="1.0" xmlns="http://www.w3.org/2000/svg"
 width="500.000000pt" height="500.000000pt" viewBox="0 0 500.000000 500.000000"
 preserveAspectRatio="xMidYMid meet">

<g transform="translate(0.000000,500.000000) scale(0.100000,-0.100000)"
fill="#000000" stroke="none">
<path d="M2340 3625 c-260 -44 -536 -192 -706 -379 -447 -494 -429 -1244 40
-1711 338 -336 839 -443 1295 -276 104 38 191 85 290 158 472 347 634 992 381
1520 -147 309 -403 534 -728 642 -176 58 -395 76 -572 46z m452 -188 c193 -51
358 -148 500 -295 193 -200 290 -441 291 -722 0 -210 -44 -381 -143 -549 -46
-80 -140 -201 -155 -201 -14 0 -585 573 -585 586 0 6 23 32 50 58 l51 46 67
-11 c122 -20 232 18 340 116 65 60 77 89 46 119 -26 27 -53 18 -103 -34 -48
-50 -76 -61 -99 -38 -28 28 -11 54 123 181 74 71 138 139 141 152 9 35 -12 65
-44 65 -22 0 -54 -27 -157 -130 -103 -103 -135 -130 -157 -130 -33 0 -54 31
-39 58 5 9 70 77 145 150 75 73 136 140 136 149 0 26 -30 53 -59 53 -20 0 -57
-31 -161 -135 -133 -133 -160 -151 -188 -123 -30 30 -12 56 113 174 69 64 127
126 131 136 9 29 -22 68 -53 68 -21 0 -59 -33 -184 -157 -138 -140 -159 -165
-179 -218 -18 -50 -21 -75 -18 -145 3 -56 11 -97 22 -119 l18 -35 -198 -195
c-110 -107 -302 -297 -427 -421 l-228 -225 -46 50 c-183 199 -286 519 -255
797 53 485 391 853 865 944 111 21 318 12 439 -19z m6 -1686 c139 -143 252
-262 252 -266 0 -3 -33 -22 -74 -40 -208 -97 -468 -119 -697 -61 -99 25 -262
93 -257 107 6 18 500 519 512 519 7 0 126 -117 264 -259z"/>
<path d="M1980 3081 c-94 -31 -176 -107 -205 -189 -68 -198 22 -410 215 -505
60 -30 72 -32 172 -32 104 0 108 -1 137 -29 l30 -29 58 51 c32 27 70 63 86 79
l27 29 -29 28 -29 28 20 56 c16 45 19 75 16 139 -6 106 -45 188 -129 268 -81
77 -151 107 -259 111 -47 2 -96 0 -110 -5z m97 -512 c34 -16 54 -20 88 -15 25
4 47 11 50 17 4 5 19 9 35 9 23 0 31 -5 36 -25 8 -33 -14 -58 -65 -73 -100
-30 -231 11 -231 73 0 42 22 45 87 14z"/>
</g>
</svg>
